<svg xmlns="http://www.w3.org/2000/svg" xmlns:xlink="http://www.w3.org/1999/xlink" version="1.1" x="0px" y="0px" viewBox="0 0 50 50" enable-background="new 0 0 50 50" xml:space="preserve"><g display="none"><g display="inline"><path d="M7.4,33.4C7.4,33.4,7.4,33.4,7.4,33.4c-0.6,0-1.1-0.4-1.2-1l-5-21c-0.1-0.3,0-0.7,0.2-0.9S1.8,10,2.1,9.9    l13.7-3.2c0.4-0.1,0.9,0,1.2,0.4c0.3,0.3,0.4,0.8,0.2,1.3L8.6,32.6C8.4,33.1,7.9,33.4,7.4,33.4z M3.9,12.1l3.7,15.7l6.5-18.1    L3.9,12.1z"/></g><g display="inline"><path d="M41.4,32.6L32.7,8.3c-0.2-0.4-0.1-0.9,0.2-1.3c0.3-0.3,0.8-0.5,1.2-0.4l13.7,3.2c0.3,0.1,0.6,0.3,0.8,0.6    s0.2,0.6,0.2,0.9l-5,21c-0.1,0.5-0.6,0.9-1.1,1c0,0,0,0-0.1,0C42.1,33.4,41.6,33.1,41.4,32.6z M35.8,9.6l6.5,18.1l3.7-15.7    L35.8,9.6z"/></g></g><g><circle cx="18.3" cy="20.8" r="1.4"/><path d="M15.5,30.1c-0.8,0-1.5,0.7-1.5,1.5c0,0.4,0.1,0.8,0.4,1.1c0.3,0.3,0.7,0.5,1.1,0.5c0,0,0,0,0,0   c0,0,0,0,0,0c0.8,0,1.5-0.7,1.5-1.5C17,30.8,16.3,30.1,15.5,30.1z"/><path d="M18.5,35.1c-0.8,0-1.5,0.7-1.5,1.5c0,0.4,0.1,0.8,0.4,1.1c0.3,0.3,0.7,0.5,1.1,0.5c0,0,0,0,0,0   c0,0,0,0,0,0c0.8,0,1.5-0.7,1.5-1.5C20,35.8,19.3,35.1,18.5,35.1z"/><path d="M34.5,30.1c-0.8,0-1.5,0.7-1.5,1.5c0,0.8,0.7,1.5,1.5,1.5c0,0,0,0,0,0c0,0,0,0,0,0c0.4,0,0.8-0.2,1.1-0.5   c0.3-0.3,0.4-0.7,0.4-1.1C36,30.8,35.3,30.1,34.5,30.1z"/><path d="M31.5,35.1c-0.8,0-1.5,0.7-1.5,1.5c0,0.8,0.7,1.5,1.5,1.5c0,0,0,0,0,0c0,0,0,0,0,0c0.4,0,0.8-0.2,1.1-0.5   c0.3-0.3,0.4-0.7,0.4-1.1C33,35.8,32.3,35.1,31.5,35.1z"/><circle cx="31.6" cy="20.8" r="1.4"/><path d="M47.4,7.5C47.2,7.2,46.9,7,46.6,7l-13-2.5c-0.4-0.1-0.9,0.1-1.2,0.4c-0.2,0.2-0.2,0.4-0.3,0.6   c-3.4-0.7-7-0.7-7.2-0.7c-0.2,0-3.6,0-7.1,0.6c0-0.2-0.1-0.4-0.3-0.6c-0.3-0.3-0.7-0.5-1.2-0.4L3.4,7C3.1,7,2.8,7.2,2.6,7.5   s-0.2,0.6-0.2,1L5.8,23c0.3,1.3,1.4,2.2,2.7,2.3c0.1,0,0.1,0,0.2,0c0.3,0,0.6,0,0.9-0.1v2.9c0,8.6,3.2,13.7,8.8,14.1   c0.7,1.2,2.6,3.4,6.6,3.4c4,0,5.9-2.2,6.6-3.4c5.6-0.4,8.8-5.5,8.8-14.1h0v-2.9c0.3,0.1,0.6,0.1,0.9,0.1c0.1,0,0.1,0,0.2,0   c1.3-0.1,2.4-1,2.7-2.3l3.4-14.5C47.7,8.2,47.6,7.8,47.4,7.5z M8.7,22.8c-0.1,0-0.4-0.1-0.4-0.4L5.2,9.2l9.6-1.9L9.2,22.5   C9.1,22.8,8.9,22.8,8.7,22.8z M25,43.1c-1.7,0-2.9-0.5-3.6-1.1c1.7-0.4,2.8-1.2,3.6-2.1c0.8,0.9,1.9,1.7,3.6,2.1   C27.9,42.5,26.7,43.1,25,43.1z M37.9,28.1c0,5.3-1.2,11.6-7,11.6c-3.6,0-4.4-2.1-4.6-2.7c0-0.1,0-0.1,0-0.2v-1.1c0,0,0,0,0,0   c0,0,0,0,0,0l1.7-1.7c0.5-0.5,0.7-1.3,0.4-1.9c-0.3-0.7-0.9-1.1-1.6-1.1h-3.5c-0.7,0-1.4,0.4-1.6,1.1c-0.3,0.7-0.1,1.4,0.4,1.9   l1.7,1.7c0,0,0,0,0,0c0,0,0,0,0,0V37c-0.1,0.5-0.8,2.8-4.6,2.8c-5.8,0-7-6.3-7-11.6v-6.3L17,8.2c3.5-0.9,7.8-0.9,7.9-0.9H25   c0,0,4.4,0,8,0.9l4.9,13.6L37.9,28.1L37.9,28.1z M41.7,22.5c-0.1,0.3-0.3,0.4-0.4,0.4c-0.1,0-0.4,0-0.5-0.3L35.3,7.3l9.6,1.9   L41.7,22.5z"/></g></svg>