<svg xmlns="http://www.w3.org/2000/svg" xmlns:xlink="http://www.w3.org/1999/xlink" version="1.1" x="0px" y="0px" viewBox="0 0 100 100" enable-background="new 0 0 100 100" xml:space="preserve"><path d="M30,42.5c0-2.8,2.2-5,5-5s5,2.2,5,5c0,1.4,1.1,2.5,2.5,2.5s2.5-1.1,2.5-2.5c0-5.5-4.5-10-10-10s-10,4.5-10,10  c0,1.4,1.1,2.5,2.5,2.5S30,43.9,30,42.5z"/><path d="M65,32.5c-5.5,0-10,4.5-10,10c0,1.4,1.1,2.5,2.5,2.5s2.5-1.1,2.5-2.5c0-2.8,2.2-5,5-5s5,2.2,5,5c0,1.4,1.1,2.5,2.5,2.5  s2.5-1.1,2.5-2.5C75,37,70.5,32.5,65,32.5z"/><path d="M70,62.5c-1.4,0-2.5,1.1-2.5,2.5c0,4.1-3.4,7.5-7.5,7.5c-4,0-7.2-3.1-7.5-7l4.7-9.4c0.4-0.8,0.3-1.7-0.1-2.4  c-0.5-0.7-1.3-1.2-2.1-1.2H45c-0.9,0-1.7,0.4-2.1,1.2c-0.5,0.7-0.5,1.7-0.1,2.4l4.7,9.4c-0.3,3.9-3.5,7-7.5,7  c-4.1,0-7.5-3.4-7.5-7.5c0-1.4-1.1-2.5-2.5-2.5s-2.5,1.1-2.5,2.5c0,6.9,5.6,12.5,12.5,12.5c4.1,0,7.7-2,10-5c2.3,3,5.9,5,10,5  c6.9,0,12.5-5.6,12.5-12.5C72.5,63.6,71.4,62.5,70,62.5z M50,59.4l-1-1.9H51L50,59.4z"/><path d="M94.8,11c0.4-0.9,0.2-2-0.5-2.7c-0.7-0.7-1.8-1-2.7-0.6l-22,8.8c-6.1-2.6-12.7-4-19.6-4s-13.4,1.3-19.6,4l-22-8.8  c-0.9-0.4-2-0.1-2.7,0.6C5,9,4.8,10.1,5.2,11l8.1,18.3C7.9,36.1,5,44.1,5,52.5c0,22.1,20.2,40,45,40s45-17.9,45-40  c0-8.4-2.9-16.4-8.3-23.2L94.8,11z M90,52.5c0,19.3-17.9,35-40,35s-40-15.7-40-35c0-7.7,2.8-15,8.1-21.2c0.6-0.7,0.8-1.8,0.4-2.7  l-6.3-14.1l17.3,6.9c0.6,0.3,1.3,0.2,2,0c5.8-2.6,12-4,18.5-4s12.7,1.3,18.5,4c0.6,0.3,1.3,0.3,2,0l17.3-6.9l-6.3,14.1  c-0.4,0.9-0.2,1.9,0.4,2.7C87.2,37.5,90,44.8,90,52.5z"/></svg>